Coordinates
version=1
nRows=12
nColumns=42
inDegrees=yes

Units are S.I. units (second, meters, Newtons, ...)
If the header above contains a line with 'inDegrees', this indicates whether rotational values are in degrees (yes) or radians (no).

endheader
time	pelvis_tilt	pelvis_list	pelvis_rotation	pelvis_tx	pelvis_ty	pelvis_tz	hip_flexion_r	hip_adduction_r	hip_rotation_r	knee_angle_r	knee_adduction_r	knee_angle_r_beta	ankle_angle_r	subtalar_angle_r	mtp_angle_r	hip_flexion_l	hip_adduction_l	hip_rotation_l	knee_angle_l	knee_adduction_l	knee_angle_l_beta	ankle_angle_l	subtalar_angle_l	mtp_angle_l	lumbar_extension	lumbar_bending	lumbar_rotation	arm_flex_r	arm_add_r	arm_rot_r	elbow_flex_r	pro_sup_r	wrist_flex_r	wrist_dev_r	arm_flex_l	arm_add_l	arm_rot_l	elbow_flex_l	pro_sup_l	wrist_flex_l	wrist_dev_l
      0.61000000	      8.59573727	      0.29132268	     -0.60190711	     -1.34280034	      0.91560080	      0.22417138	     -3.74591292	     -1.62698401	    -34.34216789	     27.35810892	    -13.87805262	      0.47748908	     36.03959441	     32.80821961	     -9.52444671	     22.94708904	     -3.41534026	    -34.53090101	     26.22664856	    -15.70150917	      0.45774137	     17.55044301	     32.80072492	     -9.52444671	    -41.51243222	     -1.85795815	     -2.31271674	      7.91493343	    -11.14926522	      6.07919531	     38.07791831	     90.00000001	      0.00000000	      0.00000000	      1.23269479	    -10.46951640	      3.07406708	     45.24560401	     90.00000001	      0.00000000	      0.00000000
      0.62000000	      8.85534278	      0.14416704	     -0.50721483	     -1.33576299	      0.91498382	      0.22207890	     -4.72143103	     -1.45566761	    -34.13932414	     27.04319118	    -13.85157327	      0.47199273	     36.26140779	     32.61970965	     -9.49772958	     22.41967949	     -3.69180406	    -35.08770714	     26.54518630	    -15.77642551	      0.46330090	     16.57704231	     32.64706102	     -9.49772958	    -41.56977177	     -1.85935314	     -2.38445539	      7.71548539	    -11.03281247	      6.23528819	     37.91635578	     90.00000001	      0.00000000	      0.00000000	      1.03119974	    -10.43388202	      3.13745059	     45.03549324	     90.00000001	      0.00000000	      0.00000000
      0.63000000	      9.12798071	      0.06099412	     -0.40573825	     -1.32874760	      0.91459300	      0.21994831	     -5.71312523	     -1.31416485	    -33.79952032	     26.72918074	    -13.82032568	      0.46651221	     36.35678025	     32.28697949	     -9.46664341	     21.89621998	     -3.86419357	    -35.44931879	     26.92387938	    -15.80760552	      0.46991034	     15.47140898	     32.68185253	     -9.46664341	    -41.66697192	     -1.93788458	     -2.47061774	      7.52160623	    -10.89588118	      6.38810675	     37.68747835	     90.00000001	      0.00000000	      0.00000000	      0.85299881	    -10.39317863	      3.31492323	     44.72038756	     90.00000001	      0.00000000	      0.00000000
      0.64000000	      9.41281608	      0.05525860	     -0.31922629	     -1.32174178	      0.91438144	      0.21774226	     -6.67274119	     -1.36357355	    -33.58239498	     26.56609955	    -13.72982371	      0.46366591	     36.38498089	     32.00113201	     -9.44753377	     21.41015265	     -3.93212313	    -35.57788763	     27.48669531	    -15.78021735	      0.47973333	     14.63537232	     32.69766368	     -9.44753377	    -41.77013798	     -2.09240977	     -2.57789835	      7.33824695	    -10.72224970	      6.47188576	     37.51754436	     90.00000001	      0.00000000	      0.00000000	      0.69259757	    -10.37690760	      3.48352813	     44.41887664	     90.00000001	      0.00000000	      0.00000000
      0.65000000	      9.53070296	      0.13071222	     -0.33478027	     -1.31484234	      0.91405319	      0.21546630	     -7.26525997	     -1.50356704	    -33.41620436	     26.59243531	    -13.94440432	      0.46412555	     36.36643176	     31.93871353	     -9.44357357	     21.11235164	     -3.71847858	    -35.44985021	     27.93349156	    -15.93411846	      0.48753140	     14.36789726	     32.74051564	     -9.44357357	    -41.71382044	     -2.34368048	     -2.57019201	      7.01652913	    -10.58544935	      6.50872596	     37.38950070	     90.00000001	      0.00000000	      0.00000000	      0.45974304	    -10.24443723	      3.56333071	     44.27264609	     90.00000001	      0.00000000	      0.00000000
      0.66000000	     10.05405787	      0.14230238	     -0.16304933	     -1.30784418	      0.91482903	      0.21313124	     -8.77990712	     -1.36827001	    -32.43831379	     25.98418739	    -13.50101111	      0.45350962	     35.90690750	     30.34745617	     -9.32420421	     20.39819374	     -3.71015032	    -35.09977875	     28.71445449	    -15.74929839	      0.50116177	     13.13542184	     32.19974504	     -9.32420421	    -42.10891190	     -2.44299760	     -2.63724870	      6.92978664	    -10.37956741	      6.50591222	     37.01729446	     90.00000001	      0.00000000	      0.00000000	      0.70731163	    -10.47776073	      4.76413020	     43.37386460	     90.00000001	      0.00000000	      0.00000000
      0.67000000	     10.24866077	      0.27510728	     -0.12414029	     -1.30104467	      0.91499510	      0.21067417	     -9.47985367	     -1.63943282	    -32.36599113	     26.03848392	    -13.58223666	      0.45445728	     35.84138927	     30.31609987	     -9.31854156	     20.08979908	     -3.39563258	    -34.81083141	     29.36361851	    -15.90011584	      0.51249182	     12.98739538	     32.20174684	     -9.31854156	    -42.14689589	     -2.70241363	     -2.65470704	      6.63333806	    -10.24803913	      6.52597281	     36.92435651	     90.00000001	      0.00000000	      0.00000000	      0.58104629	    -10.39321047	      4.81769660	     43.28517172	     90.00000001	      0.00000000	      0.00000000
      0.68000000	     10.76475222	      0.35771930	      0.08022348	     -1.29421242	      0.91597891	      0.20806958	    -10.81736460	     -1.84434798	    -32.37481784	     25.67119379	    -13.30023957	      0.44804685	     35.38200951	     30.15583642	     -9.28615246	     19.36839298	     -3.11951799	    -33.95635088	     30.14189666	    -15.71597318	      0.52607534	     12.84897606	     31.31279111	     -9.28615246	    -42.54753241	     -2.81585433	     -2.76841478	      6.43442414	    -10.07353129	      6.51292706	     36.90584095	     90.00000001	      0.00000000	      0.00000000	      0.63668121	    -10.46084378	      5.11115282	     42.98348814	     90.00000001	      0.00000000	      0.00000000
      0.69000000	     10.98193619	      0.46392559	      0.29693933	     -1.28776873	      0.91668054	      0.20531974	    -11.60853520	     -2.08917366	    -32.25631209	     25.68443115	    -13.11647782	      0.44827789	     34.84270957	     29.77932187	     -9.19213884	     18.94345607	     -2.59731730	    -32.28876887	     30.85967502	    -15.36268534	      0.53860294	     12.97111090	     28.96798379	     -9.19213884	    -42.66987123	     -2.90784101	     -2.85335046	      6.16786458	     -9.94456781	      6.49254127	     36.95895080	     90.00000001	      0.00000000	      0.00000000	      0.71597312	    -10.56005873	      5.83820248	     42.66514949	     90.00000001	      0.00000000	      0.00000000
      0.70000000	     11.22419055	      0.57317328	      0.51148228	     -1.28136876	      0.91748998	      0.20241473	    -12.35347428	     -2.47365088	    -32.45037186	     25.85461892	    -12.91813623	      0.45124823	     34.51196833	     29.71373148	     -9.17936728	     18.53679839	     -2.23752547	    -31.73105824	     31.50130263	    -15.35038864	      0.54980145	     13.17609114	     28.77209747	     -9.17936728	    -42.81421276	     -2.97688483	     -2.95653076	      5.98621366	     -9.80857038	      6.53232107	     36.91350322	     90.00000001	      0.00000000	      0.00000000	      0.70191818	    -10.54410415	      5.90491556	     42.58061361	     90.00000001	      0.00000000	      0.00000000
      0.71000000	     11.40546443	      0.68166259	      0.75599156	     -1.27520377	      0.91846707	      0.19952858	    -12.97055508	     -2.78011076	    -32.67277118	     25.98926231	    -12.89064005	      0.45359820	     33.67020853	     29.80630604	     -9.10193166	     17.99405180	     -1.60209460	    -29.85553689	     31.93504972	    -14.91784191	      0.55737176	     13.66631475	     26.24658984	     -9.10193166	    -42.90288423	     -3.04202059	     -3.08538197	      5.76220669	     -9.71684000	      6.75459823	     37.01133664	     90.00000001	      0.00000000	      0.00000000	      0.76698998	    -10.58225343	      6.30647307	     42.37502524	     90.00000001	      0.00000000	      0.00000000
      0.72000000	     11.54683639	      0.78627368	      0.97142309	     -1.26906727	      0.91941552	      0.19650552	    -13.44780117	     -3.23282930	    -32.92622965	     26.40208589	    -12.73192394	      0.46080333	     33.10456763	     29.74105013	     -9.08217861	     17.52838549	     -1.18510513	    -29.20694995	     32.26719058	    -14.80494063	      0.56316872	     14.04638528	     25.86565166	     -9.08217861	    -42.94139775	     -3.07937026	     -3.21345008	      5.61294701	     -9.60952269	      6.85410017	     36.99553452	     90.00000001	      0.00000000	      0.00000000	      0.69597956	    -10.53094262	      6.39100139	     42.27503028	     90.00000001	      0.00000000	      0.00000000
